<svg xmlns="http://www.w3.org/2000/svg" data-name="logosandtypes com" viewBox="0 0 150 150"><path d="M0 0h150v150H0z" style="fill:none"/><path d="M96.51 30.33S48.52 5.77 9.22 19.47c0 0-2.48-.1-4.65 3.26-2.33 3.26-4.29 5.48-3.1 7.91 1.19 2.48 7.24 3.57 12.67 1.71 0 0 2.48-1.55-.62-2.59-3.1-1.03-4.8-1.29-4.8-1.29-4.79-1.74 22.18-7.86 51.45.52 31.8 8.07 74.99 33.72 73.69 60.51-1.19 26.73-43.08 27.92-43.08 27.92s-8.59.47-20.06-1.71c-.26-8.74-.62-23.73-.62-32.78 16.39 0 32.89 2.74 34.23 6.88 0 0 .83 1.81-2.9 3.62-3.36 1.45-6 2.69-3.1 4.03 0 0 4.14 1.91 6.72 1.71 2.59-.21 9.21-3.21 9.83-10.45.67-7.34-7.81-13.86-20.53-16.03-9.67-1.86-14.95-2.48-23.63-2.07-.1-7.96-1.19-17.95-2.95-20.27-2.17-3.1-4.6-7.24-6.52-2.58-1.6 3.87-2.84 12.67-3.36 24.04-13.34 2.22-28.24 7.86-32.74 13.45-4.81 6.21 0 11.22.52 11.74.31.52 10.14 14.69 31.34 24.3.41 3.83 1.14 8.02 2.59 10.34 3.31 4.86 9.31 1.45 10.03.62.62-.62 1.03-2.22 1.29-6.05 9.41 2.48 26.68 5.07 44.99-.52v.05c27.67-8.38 31.6-25.6 32.32-35.78.83-10.34-6.82-36.98-51.71-59.63ZM56.64 112.2c-9.83-3.52-20.07-9.15-28.45-18.1 0 0-3.1-3.31 1.34-5.38 4.14-1.86 12.93-4.34 28.14-5.38 0 7.81.1 13.34-1.03 28.86"/></svg>